<svg width="180" height="180" viewBox="0 0 180 180" fill="none" xmlns="http://www.w3.org/2000/svg">
<path d="M172.485 126.1C165.928 141.164 155.393 154.145 142.017 163.644C128.64 173.143 112.931 178.798 96.5833 180C98.888 179.449 100.883 178.01 102.136 175.993C111.702 160.629 118.637 143.768 122.655 126.109L172.485 126.1Z" fill="url(#paint0_linear_253_24)"/>
<path d="M57.3543 126.1C61.3705 143.765 68.3058 160.632 77.8733 176.002C79.1257 178.013 81.1171 179.449 83.417 180C67.0712 178.797 51.3634 173.141 37.9887 163.642C24.614 154.143 14.0802 141.162 7.52398 126.1H57.3543Z" fill="url(#paint1_linear_253_24)"/>
<path d="M104.134 126.1C100.976 138.354 96.226 150.138 90.0046 161.149C83.7833 150.138 79.0328 138.354 75.8754 126.1" fill="url(#paint2_linear_253_24)"/>
<path d="M54.3125 71.9567C52.9751 83.9512 52.9751 96.0578 54.3125 108.052H1.82728C-0.603019 96.1445 -0.60914 83.867 1.80929 71.9567H54.3125Z" fill="url(#paint3_linear_253_24)"/>
<path d="M107.572 71.9567C109.078 83.9412 109.078 96.0678 107.572 108.052H72.4375C70.9317 96.0678 70.9317 83.9412 72.4375 71.9567H107.572Z" fill="url(#paint4_linear_253_24)"/>
<path d="M178.2 71.9567C180.606 83.8682 180.6 96.1432 178.182 108.052H125.697C127.038 96.0596 127.038 83.9585 125.697 71.9567H178.2Z" fill="url(#paint5_linear_253_24)"/>
<path d="M83.408 0.00902355C81.1099 0.563912 79.1218 2.0031 77.8733 4.01564C68.3068 19.383 61.3714 36.2468 57.3543 53.9089H7.49698C13.9983 38.989 24.4005 26.1084 37.6033 16.6299C50.806 7.15139 66.3182 1.42729 82.499 0.0631674L83.408 0.00902355Z" fill="url(#paint6_linear_253_24)"/>
<path d="M90.0046 18.86C96.2267 29.8744 100.977 41.6614 104.134 53.9179H75.8754C78.9352 42.0334 83.525 30.4557 89.6446 19.4736L90.0046 18.86Z" fill="url(#paint7_linear_253_24)"/>
<path d="M96.6013 0C112.948 1.21048 128.656 6.87033 142.033 16.3698C155.41 25.8693 165.948 38.8484 172.512 53.9089H122.655C118.639 36.2437 111.703 19.3768 102.136 4.00662C101.053 2.26752 99.4123 0.949906 97.4832 0.270717L96.6013 0Z" fill="url(#paint8_linear_253_24)"/>
<defs>
<linearGradient id="paint0_linear_253_24" x1="146.244" y1="8.99097" x2="146.244" y2="168" gradientUnits="userSpaceOnUse">
<stop stop-color="#C5D0DA"/>
<stop offset="1" stop-color="#C5D0DA" stop-opacity="0"/>
</linearGradient>
<linearGradient id="paint1_linear_253_24" x1="146.244" y1="8.99097" x2="146.244" y2="168" gradientUnits="userSpaceOnUse">
<stop stop-color="#C5D0DA"/>
<stop offset="1" stop-color="#C5D0DA" stop-opacity="0"/>
</linearGradient>
<linearGradient id="paint2_linear_253_24" x1="146.244" y1="8.99097" x2="146.244" y2="168" gradientUnits="userSpaceOnUse">
<stop stop-color="#C5D0DA"/>
<stop offset="1" stop-color="#C5D0DA" stop-opacity="0"/>
</linearGradient>
<linearGradient id="paint3_linear_253_24" x1="146.244" y1="8.99097" x2="146.244" y2="168" gradientUnits="userSpaceOnUse">
<stop stop-color="#C5D0DA"/>
<stop offset="1" stop-color="#C5D0DA" stop-opacity="0"/>
</linearGradient>
<linearGradient id="paint4_linear_253_24" x1="146.244" y1="8.99097" x2="146.244" y2="168" gradientUnits="userSpaceOnUse">
<stop stop-color="#C5D0DA"/>
<stop offset="1" stop-color="#C5D0DA" stop-opacity="0"/>
</linearGradient>
<linearGradient id="paint5_linear_253_24" x1="146.244" y1="8.99097" x2="146.244" y2="168" gradientUnits="userSpaceOnUse">
<stop stop-color="#C5D0DA"/>
<stop offset="1" stop-color="#C5D0DA" stop-opacity="0"/>
</linearGradient>
<linearGradient id="paint6_linear_253_24" x1="146.244" y1="8.99097" x2="146.244" y2="168" gradientUnits="userSpaceOnUse">
<stop stop-color="#C5D0DA"/>
<stop offset="1" stop-color="#C5D0DA" stop-opacity="0"/>
</linearGradient>
<linearGradient id="paint7_linear_253_24" x1="146.244" y1="8.99097" x2="146.244" y2="168" gradientUnits="userSpaceOnUse">
<stop stop-color="#C5D0DA"/>
<stop offset="1" stop-color="#C5D0DA" stop-opacity="0"/>
</linearGradient>
<linearGradient id="paint8_linear_253_24" x1="146.244" y1="8.99097" x2="146.244" y2="168" gradientUnits="userSpaceOnUse">
<stop stop-color="#C5D0DA"/>
<stop offset="1" stop-color="#C5D0DA" stop-opacity="0"/>
</linearGradient>
</defs>
</svg>
