<svg width="148" height="40" viewBox="0 0 148 40" fill="none" xmlns="http://www.w3.org/2000/svg">
<path d="M40.0602 20C40.0625 31.0432 31.0954 39.9977 20.0336 40C8.97192 40.0024 0.00237526 31.0503 4.71576e-07 20.0071C4.71576e-07 20.0048 4.71576e-07 20.0024 4.71576e-07 20C-0.00237431 8.95689 8.9648 0.00240179 20.0265 3.09884e-05C31.0883 -0.0023398 40.0578 8.94978 40.0602 19.9929C40.0602 19.9953 40.0602 19.9976 40.0602 20Z" fill="url(#paint0_radial_66_177)"/>
<path d="M39.3424 19.2869C39.3448 29.5417 30.8576 37.8548 20.3878 37.8572C9.9204 37.8595 1.43073 29.5466 1.43073 19.2917C1.43073 19.2894 1.43073 19.2869 1.43073 19.2845C1.42829 9.0297 9.91554 0.714325 20.3854 0.714325C30.8551 0.711943 39.3448 9.02494 39.3448 19.2798C39.3424 19.2821 39.3424 19.2845 39.3424 19.2869Z" fill="url(#paint1_linear_66_177)"/>
<path d="M36.4834 16.7858C36.4857 24.8706 29.9215 31.4262 21.8208 31.4286C13.7226 31.431 7.15598 24.8777 7.15363 16.7905C7.15363 16.7881 7.15363 16.7881 7.15363 16.7858C7.15126 8.7009 13.7155 2.14525 21.8161 2.14288C29.9144 2.14053 36.481 8.69383 36.4834 16.781C36.4834 16.7834 36.4834 16.7858 36.4834 16.7858Z" fill="url(#paint2_linear_66_177)"/>
<path d="M32.6807 4.70714C33.8037 13.8179 32.2223 22.8504 28.4507 30.7754C27.6196 33.4076 26.5615 35.9568 25.2904 38.3923C31.9444 29.2862 35.2553 17.7828 34.1162 6.07304C33.6601 5.59402 33.1808 5.13872 32.6807 4.70714ZM20.0996 0C19.838 0 19.574 0.00474274 19.3147 0.0165995C22.4612 6.21532 24.2416 13.2606 24.2416 20.7304C24.2416 27.6263 22.7251 34.1593 20.0162 40C20.044 40 20.0718 40 20.0996 40C20.6553 40 21.2063 39.9739 21.7504 39.9265C26.242 29.8197 27.2283 18.0389 23.672 6.62557C22.9543 4.32535 22.0769 2.11999 21.0581 0.0213422C20.7386 0.00474274 20.4191 0 20.0996 0Z" fill="url(#paint3_linear_66_177)"/>
<path d="M32.6807 4.70714C33.8037 13.8179 32.2223 22.8504 28.4507 30.7754C27.6196 33.4076 26.5615 35.9568 25.2904 38.3923C31.9444 29.2862 35.2553 17.7828 34.1162 6.07304C33.6601 5.59402 33.1808 5.13872 32.6807 4.70714ZM20.0996 0C19.838 0 19.574 0.00474274 19.3147 0.0165995C22.4612 6.21532 24.2416 13.2606 24.2416 20.7304C24.2416 27.6263 22.7251 34.1593 20.0162 40C20.044 40 20.0718 40 20.0996 40C20.6553 40 21.2063 39.9739 21.7504 39.9265C26.242 29.8197 27.2283 18.0389 23.672 6.62557C22.9543 4.32535 22.0769 2.11999 21.0581 0.0213422C20.7386 0.00474274 20.4191 0 20.0996 0Z" fill="url(#paint4_linear_66_177)"/>
<path d="M20.7454 0C21.8089 2.10364 22.7248 4.31186 23.4741 6.61992C27.1865 18.0604 26.1569 29.8692 21.4682 40C23.7303 39.8145 25.8862 39.2655 27.8777 38.4121C35.2443 31.8517 39.2901 22.1987 38.5409 12.2534C37.55 9.93819 36.1289 7.84643 34.3791 6.07083C35.5682 17.8084 32.1145 29.3368 25.166 38.4644C30.9736 27.7727 32.5519 14.8728 28.5084 2.41264C28.4456 2.21773 28.378 2.02519 28.3127 1.83028C25.9925 0.772521 23.4379 0.128358 20.7454 0Z" fill="white"/>
<path d="M62.9443 3.36102C62.7876 3.34438 62.5698 3.33334 62.2983 3.33334C62.0366 3.33334 61.8264 3.33886 61.6677 3.35176C61.5072 3.36101 61.3887 3.38309 61.3008 3.41449C61.211 3.44581 61.1517 3.48639 61.1173 3.54351C61.0791 3.59512 61.0505 3.66702 61.0218 3.75003L56.2747 16.2962H56.2575L51.3766 3.72788C51.3422 3.6486 51.304 3.58595 51.2638 3.53613C51.2237 3.48639 51.1664 3.44581 51.0899 3.41449C51.0116 3.38495 50.8969 3.36101 50.7517 3.35176C50.6084 3.33886 50.4153 3.33334 50.1669 3.33334C49.8706 3.33334 49.6337 3.34259 49.4559 3.35915C49.282 3.37392 49.1521 3.40711 49.0775 3.46058C49.0011 3.51584 48.9572 3.59326 48.9629 3.69842C48.9705 3.80351 49.005 3.93618 49.0775 4.10586L54.6445 17.9813C54.6675 18.0421 54.6942 18.0937 54.7267 18.138C54.7573 18.1823 54.7993 18.2173 54.8547 18.2468C54.9044 18.28 54.9694 18.304 55.042 18.3224C55.1166 18.3445 55.2083 18.3611 55.3115 18.3759C55.4185 18.3924 55.5428 18.3998 55.688 18.4072C55.8351 18.4072 56.0014 18.4127 56.1944 18.4127C56.4505 18.4127 56.6607 18.4072 56.8327 18.3924C57.0047 18.3833 57.1442 18.3611 57.257 18.3298C57.364 18.2984 57.45 18.2579 57.5112 18.2025C57.5742 18.1491 57.6201 18.079 57.6564 17.9942L63.21 4.12055C63.2826 3.95095 63.3227 3.81454 63.3342 3.71311C63.3495 3.60803 63.3265 3.52875 63.273 3.47527C63.2081 3.42001 63.101 3.3813 62.9443 3.36102Z" fill="#3A3A3A"/>
<path d="M147.885 17.6364L142.321 3.76112C142.292 3.70025 142.265 3.64864 142.232 3.60627C142.202 3.56196 142.158 3.52512 142.109 3.49744C142.053 3.46612 141.992 3.44031 141.919 3.42002C141.845 3.4016 141.753 3.38496 141.65 3.3684C141.545 3.35177 141.419 3.3426 141.273 3.33886C141.128 3.33886 140.96 3.33334 140.767 3.33334C140.513 3.33334 140.299 3.33886 140.127 3.35177C139.957 3.36102 139.817 3.38309 139.711 3.4145C139.599 3.44583 139.514 3.48641 139.451 3.54354C139.392 3.59516 139.343 3.66706 139.305 3.75008L133.754 17.6235C133.687 17.7914 133.643 17.9314 133.626 18.0348C133.617 18.1399 133.636 18.2173 133.696 18.2726C133.752 18.3261 133.859 18.3611 134.018 18.3832C134.173 18.3998 134.389 18.4127 134.658 18.4127C134.921 18.4127 135.136 18.4072 135.292 18.3924C135.451 18.3832 135.571 18.3611 135.661 18.3298C135.749 18.2984 135.808 18.2579 135.845 18.2025C135.885 18.149 135.916 18.079 135.936 17.9942L140.689 5.44829H140.704L145.582 18.0163C145.617 18.0938 145.657 18.1564 145.697 18.2062C145.732 18.2579 145.795 18.2984 145.875 18.3298C145.955 18.3611 146.064 18.3832 146.205 18.3924C146.353 18.4072 146.55 18.4127 146.794 18.4127C147.094 18.4127 147.329 18.3998 147.505 18.3869C147.682 18.3703 147.806 18.3372 147.887 18.2837C147.963 18.2283 148.002 18.149 148 18.0477C147.992 17.9444 147.958 17.8061 147.885 17.6364Z" fill="#3A3A3A"/>
<path d="M69.477 3.43106C69.3837 3.40712 69.2621 3.38131 69.1081 3.36102C68.9519 3.34438 68.7614 3.33334 68.5262 3.33334C68.3174 3.33334 68.133 3.34438 67.9789 3.36102C67.8229 3.38131 67.7012 3.40712 67.6039 3.43106C67.5066 3.45873 67.4337 3.49558 67.3931 3.54354C67.3526 3.58964 67.3323 3.64312 67.3323 3.70577V18.0421C67.3323 18.1048 67.3465 18.1583 67.385 18.2044C67.4256 18.2486 67.4904 18.2855 67.5837 18.3113C67.6769 18.3372 67.8006 18.363 67.9587 18.3832C68.1147 18.3998 68.3073 18.4127 68.5282 18.4127C68.7634 18.4127 68.9539 18.3998 69.1101 18.3832C69.2641 18.3611 69.3857 18.3372 69.479 18.3113C69.5742 18.2855 69.6371 18.2486 69.6736 18.2044C69.7142 18.1583 69.7283 18.1048 69.7283 18.0421V3.70577C69.7283 3.64312 69.7121 3.58964 69.6736 3.54354C69.6371 3.49744 69.5722 3.45873 69.477 3.43106Z" fill="#3A3A3A"/>
<path d="M82.8947 11.8978C82.5368 11.5705 82.124 11.2832 81.6638 11.0396C81.2018 10.7961 80.7321 10.5735 80.255 10.3717C79.7777 10.1701 79.3082 9.9684 78.8461 9.7705C78.384 9.5726 77.9731 9.35377 77.6133 9.114C77.2497 8.87423 76.9638 8.60028 76.746 8.29201C76.5339 7.98373 76.4222 7.60895 76.4222 7.18267C76.4222 6.89156 76.479 6.61184 76.5908 6.34929C76.7043 6.08858 76.8748 5.86213 77.102 5.67378C77.3274 5.47973 77.6114 5.32748 77.9617 5.21526C78.3064 5.10102 78.7154 5.04206 79.1831 5.04206C79.6907 5.04206 80.1451 5.10102 80.5504 5.21526C80.9556 5.32748 81.3021 5.45494 81.5995 5.59581C81.8911 5.73466 82.1467 5.85836 82.3493 5.97251C82.552 6.08096 82.7034 6.13808 82.7982 6.13808C82.8568 6.13808 82.9118 6.11907 82.9591 6.08289C83.0084 6.04864 83.0462 5.99152 83.0727 5.91355C83.0973 5.84312 83.1163 5.74798 83.1276 5.63576C83.1447 5.52345 83.1523 5.39975 83.1523 5.25328C83.1523 5.10488 83.1447 4.98118 83.139 4.88604C83.1239 4.78521 83.1144 4.70908 83.0973 4.63865C83.0803 4.57399 83.0576 4.51688 83.031 4.47316C83.0046 4.43129 82.9496 4.3704 82.8701 4.29427C82.7887 4.22007 82.6164 4.12117 82.3531 3.99747C82.0937 3.87377 81.7945 3.76532 81.4613 3.66448C81.1279 3.56549 80.7719 3.4856 80.3894 3.42471C80.0164 3.3676 79.6376 3.33334 79.2646 3.33334C78.5356 3.33334 77.8538 3.42471 77.2232 3.6036C76.5927 3.7824 76.051 4.04311 75.5947 4.38372C75.1383 4.72809 74.7842 5.14482 74.5247 5.651C74.2672 6.15709 74.1422 6.72985 74.1422 7.37488C74.1422 7.99704 74.2482 8.53747 74.4736 8.98653C74.6932 9.43366 74.9849 9.82946 75.3409 10.1605C75.6969 10.4935 76.1003 10.7828 76.5529 11.032C77.0054 11.2755 77.4713 11.502 77.9485 11.7037C78.4276 11.9054 78.8953 12.1052 79.3498 12.2974C79.808 12.4933 80.2152 12.7084 80.5712 12.9443C80.9272 13.1765 81.2151 13.4504 81.4309 13.7606C81.6449 14.0707 81.7547 14.4437 81.7547 14.8794C81.7547 15.2866 81.6809 15.6444 81.5199 15.964C81.3646 16.2837 81.1412 16.5501 80.8496 16.7689C80.5579 16.9858 80.2095 17.157 79.8062 17.275C79.4009 17.393 78.9559 17.4539 78.4692 17.4539C77.8292 17.4539 77.2592 17.3835 76.7688 17.2465C76.2745 17.1076 75.856 16.9591 75.5113 16.8013C75.1629 16.6414 74.8788 16.4968 74.6554 16.3598C74.432 16.2266 74.2634 16.1581 74.1422 16.1581C74.074 16.1581 74.0116 16.1714 73.9604 16.2C73.9074 16.2266 73.8638 16.2761 73.8317 16.3465C73.7919 16.4207 73.7692 16.512 73.7521 16.6281C73.7313 16.7442 73.7218 16.8869 73.7218 17.0638C73.7218 17.3093 73.7464 17.5033 73.7938 17.6499C73.843 17.7964 73.9206 17.9201 74.0173 18.0152C74.1157 18.1103 74.2937 18.2245 74.5531 18.3596C74.8107 18.4947 75.1269 18.626 75.5019 18.7516C75.8825 18.881 76.3124 18.9875 76.7952 19.075C77.28 19.1626 77.8007 19.2064 78.3669 19.2064C79.1755 19.2064 79.9311 19.1074 80.628 18.9076C81.3286 18.7097 81.9403 18.4129 82.4535 18.0209C82.9724 17.627 83.3738 17.1476 83.6654 16.5844C83.9571 16.0211 84.1048 15.378 84.1048 14.6549C84.1048 14.0441 83.9912 13.5151 83.7715 13.0642C83.5462 12.619 83.2545 12.2251 82.8947 11.8978Z" fill="#3A3A3A"/>
<path d="M91.0393 3.43106C90.9459 3.40712 90.8243 3.38131 90.6728 3.36102C90.5187 3.34438 90.3266 3.33334 90.0941 3.33334C89.8826 3.33334 89.695 3.34438 89.5409 3.36102C89.3885 3.38131 89.2651 3.40712 89.1665 3.43106C89.0687 3.45873 89 3.49558 88.9577 3.54354C88.9154 3.58964 88.8969 3.64312 88.8969 3.70577V18.0421C88.8969 18.1048 88.9154 18.1583 88.9515 18.2044C88.9876 18.2486 89.0528 18.2855 89.1462 18.3113C89.2387 18.3372 89.3647 18.363 89.525 18.3832C89.6862 18.3998 89.873 18.4127 90.0958 18.4127C90.3284 18.4127 90.5213 18.3998 90.6746 18.3832C90.8287 18.3611 90.9503 18.3372 91.041 18.3113C91.1344 18.2855 91.1996 18.2486 91.2401 18.2044C91.278 18.1583 91.293 18.1048 91.293 18.0421V3.70577C91.293 3.64312 91.2762 3.58964 91.2401 3.54354C91.1978 3.49744 91.1327 3.45873 91.0393 3.43106Z" fill="#3A3A3A"/>
<path d="M110.137 5.34288C109.486 4.68638 108.674 4.18969 107.699 3.84712C106.722 3.50647 105.579 3.33334 104.26 3.33334C102.902 3.33334 101.705 3.52557 100.686 3.90232C99.6608 4.27915 98.8085 4.81193 98.1272 5.51224C97.4433 6.20685 96.9357 7.04988 96.5928 8.04326C96.2518 9.03471 96.0851 10.1385 96.0851 11.3564C96.0851 12.6257 96.2422 13.7485 96.551 14.7248C96.8633 15.7029 97.343 16.5193 97.9824 17.1797C98.6245 17.84 99.4322 18.3405 100.411 18.6887C101.391 19.0331 102.557 19.2064 103.9 19.2064C105.263 19.2064 106.453 19.0161 107.477 18.6373C108.497 18.2624 109.348 17.7201 110.023 17.0178C110.699 16.3175 111.208 15.465 111.55 14.464C111.889 13.4612 112.059 12.3402 112.059 11.0919C112.059 9.84541 111.903 8.73979 111.584 7.77498C111.269 6.80631 110.785 5.99754 110.137 5.34288ZM109.275 13.6039C109.089 14.3479 108.782 15.0083 108.351 15.5754C107.917 16.1444 107.348 16.5935 106.645 16.9265C105.934 17.2596 105.06 17.427 104.019 17.427C102.972 17.427 102.1 17.2748 101.406 16.9703C100.71 16.6639 100.156 16.2357 99.7454 15.68C99.3284 15.132 99.0336 14.4736 98.8565 13.7124C98.6846 12.9473 98.5983 12.1157 98.5983 11.208C98.5983 10.3916 98.6907 9.60946 98.8809 8.8692C99.0693 8.12702 99.3799 7.47806 99.8178 6.9224C100.255 6.36675 100.822 5.9214 101.522 5.58653C102.22 5.25158 103.085 5.08599 104.113 5.08599C105.142 5.08599 106.009 5.24396 106.708 5.54842C107.404 5.86051 107.963 6.28684 108.383 6.84249C108.802 7.39438 109.101 8.04518 109.277 8.79683C109.458 9.54857 109.548 10.3611 109.548 11.2346C109.55 12.0681 109.458 12.8559 109.275 13.6039Z" fill="#3A3A3A"/>
<path d="M129.385 3.43313C129.292 3.398 129.171 3.37401 129.017 3.35921C128.86 3.3444 128.673 3.33334 128.457 3.33334C128.211 3.33334 128.016 3.34253 127.864 3.35921C127.712 3.37401 127.591 3.398 127.5 3.43313C127.407 3.46818 127.343 3.51072 127.302 3.55504C127.262 3.60123 127.244 3.65117 127.244 3.70655V11.8256C127.244 12.4371 127.245 13.069 127.245 13.7269C127.256 14.3865 127.264 15.0222 127.282 15.6319H127.268C127.054 15.2697 126.834 14.9076 126.617 14.5509C126.397 14.1907 126.176 13.8248 125.954 13.4571C125.73 13.0857 125.498 12.7124 125.256 12.3299C125.017 11.9457 124.762 11.5558 124.506 11.1548L120.29 4.58422C120.138 4.34772 119.995 4.14815 119.856 3.98932C119.719 3.83407 119.574 3.70655 119.424 3.61977C119.28 3.52918 119.108 3.46818 118.925 3.4276C118.737 3.38881 118.509 3.37214 118.234 3.37214H117.058C116.81 3.37214 116.583 3.43679 116.371 3.56797C116.159 3.69915 116.052 3.91718 116.052 4.22947V18.0395C116.052 18.0931 116.073 18.1448 116.113 18.1947C116.153 18.2446 116.214 18.2852 116.302 18.3111C116.389 18.337 116.51 18.3629 116.659 18.3832C116.813 18.3998 117.004 18.4127 117.238 18.4127C117.475 18.4127 117.667 18.3998 117.816 18.3832C117.969 18.361 118.093 18.337 118.181 18.3111C118.278 18.2852 118.343 18.2464 118.38 18.1947C118.421 18.1448 118.441 18.0931 118.441 18.0395V9.00769C118.441 8.43492 118.433 7.86214 118.425 7.28383C118.417 6.70544 118.4 6.13819 118.38 5.582H118.407C118.664 6.04028 118.929 6.50408 119.223 6.99C119.516 7.47413 119.801 7.93232 120.088 8.37213L125.569 16.8847C125.756 17.1895 125.934 17.4316 126.103 17.6256C126.268 17.8196 126.438 17.9711 126.609 18.0838C126.774 18.1965 126.952 18.2723 127.135 18.3129C127.322 18.3572 127.54 18.3776 127.79 18.3776H128.578C128.701 18.3776 128.83 18.3629 128.955 18.3314C129.078 18.3 129.191 18.2501 129.29 18.1799C129.392 18.1078 129.473 18.0228 129.535 17.9156C129.596 17.8067 129.63 17.6773 129.63 17.5202V3.71029C129.63 3.65482 129.61 3.60497 129.568 3.55878C129.535 3.51072 129.471 3.47005 129.385 3.43313Z" fill="#3A3A3A"/>
<path d="M123.493 35.7348C123.388 35.7348 123.302 35.7014 123.235 35.6345C123.168 35.5676 123.135 35.4815 123.135 35.3764V32.2223L119.777 26.1578C119.767 26.1291 119.758 26.1052 119.748 26.0861C119.738 26.0574 119.734 26.0287 119.734 26.0001C119.734 25.9236 119.762 25.8567 119.82 25.7993C119.887 25.7324 119.958 25.699 120.035 25.699H121.556C121.69 25.699 121.795 25.7324 121.872 25.7993C121.948 25.8662 122.001 25.9284 122.03 25.9857L124.283 29.9284L126.535 25.9857C126.564 25.9284 126.617 25.8662 126.693 25.7993C126.77 25.7324 126.875 25.699 127.009 25.699H128.53C128.607 25.699 128.674 25.7324 128.731 25.7993C128.798 25.8567 128.831 25.9236 128.831 26.0001C128.831 26.0287 128.827 26.0574 128.817 26.0861C128.807 26.1052 128.798 26.1291 128.788 26.1578L125.431 32.2223V35.3764C125.431 35.4815 125.397 35.5676 125.33 35.6345C125.263 35.7014 125.177 35.7348 125.072 35.7348H123.493Z" fill="#ED6B1B"/>
<path d="M111.493 35.7348C111.387 35.7348 111.301 35.7014 111.234 35.6345C111.167 35.5676 111.134 35.4815 111.134 35.3764V26.0574C111.134 25.9523 111.167 25.8662 111.234 25.7993C111.301 25.7324 111.387 25.699 111.493 25.699H115.295C116.491 25.699 117.433 25.9762 118.122 26.5305C118.811 27.0753 119.155 27.8638 119.155 28.8961C119.155 29.5938 118.988 30.1769 118.653 30.6452C118.318 31.1136 117.869 31.4624 117.304 31.6918L119.328 35.276C119.356 35.3334 119.371 35.386 119.371 35.4337C119.371 35.5102 119.342 35.5819 119.285 35.6488C119.227 35.7061 119.155 35.7348 119.069 35.7348H117.476C117.304 35.7348 117.175 35.6918 117.089 35.6058C117.003 35.5102 116.941 35.4242 116.902 35.3477L115.152 32.0646H113.415V35.3764C113.415 35.4815 113.382 35.5676 113.315 35.6345C113.248 35.7014 113.162 35.7348 113.057 35.7348H111.493ZM113.415 30.2438H115.252C115.778 30.2438 116.166 30.1243 116.415 29.8854C116.673 29.6464 116.802 29.3119 116.802 28.8818C116.802 28.4517 116.678 28.1124 116.429 27.8638C116.18 27.6153 115.788 27.4911 115.252 27.4911H113.415V30.2438Z" fill="#ED6B1B"/>
<path d="M102.454 35.7348C102.349 35.7348 102.263 35.7014 102.196 35.6345C102.129 35.5676 102.095 35.4815 102.095 35.3764V26.0574C102.095 25.9523 102.129 25.8662 102.196 25.7993C102.263 25.7324 102.349 25.699 102.454 25.699H108.954C109.06 25.699 109.146 25.7324 109.213 25.7993C109.28 25.8662 109.313 25.9523 109.313 26.0574V27.2044C109.313 27.2999 109.28 27.3812 109.213 27.4481C109.146 27.515 109.06 27.5484 108.954 27.5484H104.305V29.7993H108.639C108.744 29.7993 108.83 29.8328 108.897 29.8997C108.964 29.9666 108.997 30.0526 108.997 30.1578V31.2187C108.997 31.3143 108.964 31.3955 108.897 31.4624C108.83 31.5293 108.744 31.5628 108.639 31.5628H104.305V33.8854H109.069C109.174 33.8854 109.261 33.9188 109.328 33.9857C109.394 34.0526 109.428 34.1386 109.428 34.2438V35.3764C109.428 35.4815 109.394 35.5676 109.328 35.6345C109.261 35.7014 109.174 35.7348 109.069 35.7348H102.454Z" fill="#ED6B1B"/>
<path d="M95.8853 35.8782C95.0435 35.8782 94.3069 35.7396 93.6755 35.4624C93.0441 35.1757 92.5562 34.7408 92.2118 34.1578C91.8674 33.5652 91.6952 32.8149 91.6952 31.9069V26.0574C91.6952 25.9523 91.7287 25.8662 91.7956 25.7993C91.8626 25.7324 91.9487 25.699 92.0539 25.699H93.6181C93.7233 25.699 93.8094 25.7324 93.8764 25.7993C93.9433 25.8662 93.9768 25.9523 93.9768 26.0574V31.8925C93.9768 32.5998 94.1442 33.1255 94.479 33.4696C94.8139 33.8137 95.2826 33.9857 95.8853 33.9857C96.4785 33.9857 96.9424 33.8137 97.2773 33.4696C97.6121 33.1255 97.7795 32.5998 97.7795 31.8925V26.0574C97.7795 25.9523 97.813 25.8662 97.8799 25.7993C97.9565 25.7324 98.0426 25.699 98.1382 25.699H99.7167C99.8124 25.699 99.8937 25.7324 99.9607 25.7993C100.028 25.8662 100.061 25.9523 100.061 26.0574V31.9069C100.061 32.8149 99.8889 33.5652 99.5445 34.1578C99.2001 34.7408 98.717 35.1757 98.0952 35.4624C97.4734 35.7396 96.7368 35.8782 95.8853 35.8782Z" fill="#ED6B1B"/>
<path d="M88.1203 36.6667C87.9768 36.6667 87.862 36.6237 87.7759 36.5377C87.6994 36.4612 87.6372 36.3943 87.5894 36.337L87.0728 35.6488C86.6614 35.8017 86.1927 35.8782 85.6665 35.8782C84.796 35.8782 84.045 35.7348 83.4136 35.4481C82.7822 35.1613 82.2895 34.7312 81.9356 34.1578C81.5912 33.5747 81.3998 32.8435 81.3616 31.9642C81.352 31.5532 81.3472 31.147 81.3472 30.7456C81.3472 30.3346 81.352 29.9188 81.3616 29.4983C81.3998 28.638 81.596 27.9164 81.9499 27.3334C82.3134 26.7408 82.8109 26.2963 83.4423 26C84.0833 25.7038 84.8247 25.5556 85.6665 25.5556C86.5084 25.5556 87.245 25.7038 87.8764 26C88.5173 26.2963 89.0196 26.7408 89.3831 27.3334C89.7466 27.9164 89.9428 28.638 89.9715 29.4983C89.9906 29.9188 90.0002 30.3346 90.0002 30.7456C90.0002 31.147 89.9906 31.5532 89.9715 31.9642C89.9141 33.1876 89.5649 34.1195 88.9239 34.7599L89.9571 36.2223C89.9667 36.2318 89.9762 36.2509 89.9858 36.2796C89.9954 36.3083 90.0002 36.337 90.0002 36.3656C90.0097 36.4421 89.9858 36.509 89.9284 36.5664C89.871 36.6333 89.7993 36.6667 89.7132 36.6667H88.1203ZM85.6665 34.0287C86.2309 34.0287 86.6901 33.8615 87.0441 33.5269C87.3981 33.1828 87.5894 32.638 87.6181 31.8925C87.6372 31.472 87.6468 31.0801 87.6468 30.7169C87.6468 30.3441 87.6372 29.9523 87.6181 29.5413C87.599 29.0443 87.5033 28.638 87.3311 28.3226C87.1685 28.0072 86.9436 27.7778 86.6567 27.6345C86.3697 27.4815 86.0396 27.4051 85.6665 27.4051C85.303 27.4051 84.9777 27.4815 84.6907 27.6345C84.4037 27.7778 84.1741 28.0072 84.0019 28.3226C83.8297 28.638 83.7341 29.0443 83.7149 29.5413C83.7054 29.9523 83.7006 30.3441 83.7006 30.7169C83.7006 31.0801 83.7054 31.472 83.7149 31.8925C83.7436 32.638 83.935 33.1828 84.2889 33.5269C84.6525 33.8615 85.1117 34.0287 85.6665 34.0287Z" fill="#ED6B1B"/>
<path d="M72.4241 35.8782C71.5535 35.8782 70.8026 35.7348 70.1712 35.4481C69.5398 35.1613 69.0471 34.7312 68.6931 34.1578C68.3392 33.5747 68.1478 32.8435 68.1191 31.9642C68.1096 31.5532 68.1048 31.147 68.1048 30.7456C68.1048 30.3346 68.1096 29.9188 68.1191 29.4983C68.1478 28.638 68.3392 27.9164 68.6931 27.3334C69.0567 26.7408 69.5541 26.2963 70.1855 26C70.8265 25.7038 71.5727 25.5556 72.4241 25.5556C73.2659 25.5556 74.0026 25.7038 74.634 26C75.2749 26.2963 75.7772 26.7408 76.1407 27.3334C76.5042 27.9164 76.6955 28.638 76.7147 29.4983C76.7338 29.9188 76.7434 30.3346 76.7434 30.7456C76.7434 31.147 76.7338 31.5532 76.7147 31.9642C76.686 32.8435 76.4946 33.5747 76.1407 34.1578C75.7867 34.7312 75.294 35.1613 74.6627 35.4481C74.0313 35.7348 73.2851 35.8782 72.4241 35.8782ZM72.4241 34.0287C72.9789 34.0287 73.4334 33.8615 73.7873 33.5269C74.1508 33.1828 74.3422 32.638 74.3613 31.8925C74.3804 31.472 74.39 31.0801 74.39 30.7169C74.39 30.3441 74.3804 29.9523 74.3613 29.5413C74.3517 29.0443 74.2609 28.638 74.0887 28.3226C73.9165 28.0072 73.6869 27.7778 73.3999 27.6345C73.1224 27.4815 72.7972 27.4051 72.4241 27.4051C72.051 27.4051 71.7209 27.4815 71.4339 27.6345C71.147 27.7778 70.9174 28.0072 70.7452 28.3226C70.5825 28.638 70.4916 29.0443 70.4725 29.5413C70.4629 29.9523 70.4582 30.3441 70.4582 30.7169C70.4582 31.0801 70.4629 31.472 70.4725 31.8925C70.5012 32.638 70.6925 33.1828 71.0465 33.5269C71.4005 33.8615 71.8597 34.0287 72.4241 34.0287Z" fill="#ED6B1B"/>
<path d="M59.839 35.7348C59.7337 35.7348 59.6476 35.7014 59.5807 35.6345C59.5137 35.5676 59.4802 35.4815 59.4802 35.3764V26.0574C59.4802 25.9523 59.5137 25.8662 59.5807 25.7993C59.6476 25.7324 59.7337 25.699 59.839 25.699H66.3394C66.4447 25.699 66.5308 25.7324 66.5977 25.7993C66.6647 25.8662 66.6982 25.9523 66.6982 26.0574V27.2044C66.6982 27.2999 66.6647 27.3812 66.5977 27.4481C66.5308 27.515 66.4447 27.5484 66.3394 27.5484H61.6901V29.7993H66.0237C66.129 29.7993 66.2151 29.8328 66.282 29.8997C66.349 29.9666 66.3825 30.0526 66.3825 30.1578V31.2187C66.3825 31.3143 66.349 31.3955 66.282 31.4624C66.2151 31.5293 66.129 31.5628 66.0237 31.5628H61.6901V33.8854H66.4542C66.5595 33.8854 66.6456 33.9188 66.7125 33.9857C66.7795 34.0526 66.813 34.1386 66.813 34.2438V35.3764C66.813 35.4815 66.7795 35.5676 66.7125 35.6345C66.6456 35.7014 66.5595 35.7348 66.4542 35.7348H59.839Z" fill="#ED6B1B"/>
<path d="M53.3247 35.8782C52.4255 35.8782 51.6554 35.7301 51.0144 35.4338C50.383 35.1279 49.8904 34.6882 49.5364 34.1148C49.192 33.5317 49.0055 32.8292 48.9768 32.0072C48.9672 31.5963 48.9624 31.1566 48.9624 30.6882C48.9624 30.2199 48.9672 29.7755 48.9768 29.3549C49.0055 28.552 49.192 27.8687 49.5364 27.3047C49.8904 26.7408 50.3878 26.3107 51.0288 26.0144C51.6793 25.7086 52.4446 25.5556 53.3247 25.5556C54.0327 25.5556 54.6545 25.6464 55.1902 25.828C55.7259 26.0096 56.1756 26.2486 56.5391 26.5449C56.9026 26.8316 57.18 27.147 57.3714 27.4911C57.5627 27.8352 57.6632 28.165 57.6727 28.4804C57.6727 28.5664 57.644 28.6428 57.5866 28.7098C57.5292 28.7671 57.4527 28.7958 57.357 28.7958H55.5777C55.482 28.7958 55.4055 28.7767 55.3481 28.7384C55.3002 28.7002 55.2572 28.6428 55.2189 28.5664C55.1519 28.3943 55.0419 28.2223 54.8889 28.0503C54.7454 27.8687 54.5493 27.7157 54.3005 27.5915C54.0518 27.4672 53.7265 27.4051 53.3247 27.4051C52.722 27.4051 52.2437 27.5628 51.8898 27.8782C51.5454 28.1936 51.3588 28.7098 51.3301 29.4266C51.3014 30.2486 51.3014 31.0849 51.3301 31.9356C51.3588 32.6811 51.5501 33.2163 51.9041 33.5413C52.2676 33.8663 52.7507 34.0288 53.3534 34.0288C53.7457 34.0288 54.0948 33.9618 54.401 33.828C54.7167 33.6847 54.9654 33.4648 55.1472 33.1685C55.3289 32.8722 55.4198 32.4947 55.4198 32.0359V31.6775H53.8557C53.76 31.6775 53.6787 31.644 53.6117 31.5771C53.5448 31.5007 53.5113 31.4147 53.5113 31.3191V30.4015C53.5113 30.2964 53.5448 30.2104 53.6117 30.1434C53.6787 30.0765 53.76 30.0431 53.8557 30.0431H57.3714C57.4766 30.0431 57.5627 30.0765 57.6297 30.1434C57.6966 30.2104 57.7301 30.2964 57.7301 30.4015V31.9642C57.7301 32.7862 57.5484 33.4887 57.1848 34.0718C56.8309 34.6548 56.3191 35.104 55.6494 35.4194C54.9893 35.7253 54.2144 35.8782 53.3247 35.8782Z" fill="#ED6B1B"/>
<defs>
<radialGradient id="paint0_radial_66_177" cx="0" cy="0" r="1" gradientUnits="userSpaceOnUse" gradientTransform="translate(20.0301 20) scale(20.0319 19.9982)">
<stop offset="0.58" stop-color="#F6A117"/>
<stop offset="0.7017" stop-color="#F69F17"/>
<stop offset="0.7832" stop-color="#F49818"/>
<stop offset="0.8531" stop-color="#F28B1A"/>
<stop offset="0.9163" stop-color="#EF791C"/>
<stop offset="0.9745" stop-color="#EB611D"/>
<stop offset="1" stop-color="#E9521D"/>
</radialGradient>
<linearGradient id="paint1_linear_66_177" x1="8.8363" y1="32.3683" x2="37.0544" y2="-0.94833" gradientUnits="userSpaceOnUse">
<stop offset="0.0961" stop-color="#E9521D"/>
<stop offset="1" stop-color="#F6A117"/>
</linearGradient>
<linearGradient id="paint2_linear_66_177" x1="10.9263" y1="28.9667" x2="30.4254" y2="7.08789" gradientUnits="userSpaceOnUse">
<stop stop-color="#E9521D"/>
<stop offset="1" stop-color="#F6A117"/>
</linearGradient>
<linearGradient id="paint3_linear_66_177" x1="26.5508" y1="36.5272" x2="26.886" y2="0.41793" gradientUnits="userSpaceOnUse">
<stop stop-color="white"/>
<stop offset="1"/>
</linearGradient>
<linearGradient id="paint4_linear_66_177" x1="26.5508" y1="36.5272" x2="26.886" y2="0.41793" gradientUnits="userSpaceOnUse">
<stop stop-color="#B94817"/>
<stop offset="1" stop-color="#F6A117"/>
</linearGradient>
</defs>
</svg>
