<svg width="181" height="175" viewBox="0 0 181 175" fill="none" xmlns="http://www.w3.org/2000/svg">
<mask id="mask0_91_4" style="mask-type:alpha" maskUnits="userSpaceOnUse" x="0" y="0" width="181" height="175">
<rect width="181" height="175" fill="white"/>
</mask>
<g mask="url(#mask0_91_4)">
<path d="M90.5 0L91.8236 0.0790997C94.3487 0.376559 96.6999 1.5151 98.4978 3.31103C100.296 5.10696 101.436 7.45555 101.733 9.9779L101.812 11.3V56.5L101.869 58.195C102.274 63.5757 104.593 68.6342 108.406 72.4559C112.22 76.2776 117.276 78.6103 122.661 79.0322L124.437 79.1H169.688L171.011 79.1791C173.536 79.4766 175.887 80.6151 177.685 82.411C179.483 84.207 180.623 86.5555 180.921 89.0779L181 90.4V192.1C181 200.747 177.693 209.067 171.754 215.358C165.816 221.65 157.695 225.436 149.053 225.944L147.062 226H33.9375C25.2811 226 16.9516 222.697 10.6534 216.765C4.35523 210.833 0.564409 202.721 0.0565638 194.089L5.27215e-08 192.1V33.9C-0.000482158 25.2531 3.30693 16.9329 9.24552 10.6417C15.1841 4.35042 23.305 0.563785 31.9465 0.0565013L33.9375 0H90.5ZM124.437 158.2H56.5625C53.5622 158.2 50.6849 159.391 48.5634 161.51C46.4419 163.629 45.25 166.503 45.25 169.5C45.25 172.497 46.4419 175.371 48.5634 177.49C50.6849 179.609 53.5622 180.8 56.5625 180.8H124.437C127.438 180.8 130.315 179.609 132.437 177.49C134.558 175.371 135.75 172.497 135.75 169.5C135.75 166.503 134.558 163.629 132.437 161.51C130.315 159.391 127.438 158.2 124.437 158.2ZM124.437 113H56.5625C53.5622 113 50.6849 114.191 48.5634 116.31C46.4419 118.429 45.25 121.303 45.25 124.3C45.25 127.297 46.4419 130.171 48.5634 132.29C50.6849 134.409 53.5622 135.6 56.5625 135.6H124.437C127.438 135.6 130.315 134.409 132.437 132.29C134.558 130.171 135.75 127.297 135.75 124.3C135.75 121.303 134.558 118.429 132.437 116.31C130.315 114.191 127.438 113 124.437 113Z" fill="url(#paint0_linear_91_4)"/>
<path d="M169.688 56.4999H124.437L124.426 11.2887L169.688 56.4999Z" fill="url(#paint1_linear_91_4)"/>
</g>
<defs>
<linearGradient id="paint0_linear_91_4" x1="147.057" y1="11.2887" x2="147.057" y2="176" gradientUnits="userSpaceOnUse">
<stop stop-color="#C5D0DA"/>
<stop offset="1" stop-color="#C5D0DA" stop-opacity="0"/>
</linearGradient>
<linearGradient id="paint1_linear_91_4" x1="147.057" y1="11.2887" x2="147.057" y2="176" gradientUnits="userSpaceOnUse">
<stop stop-color="#C5D0DA"/>
<stop offset="1" stop-color="#C5D0DA" stop-opacity="0"/>
</linearGradient>
</defs>
</svg>
